Coordinates
version=1
nRows=16
nColumns=40
inDegrees=yes

Units are S.I. units (second, meters, Newtons, ...)
If the header above contains a line with 'inDegrees', this indicates whether rotational values are in degrees (yes) or radians (no).

endheader
time	pelvis_tilt	pelvis_list	pelvis_rotation	pelvis_tx	pelvis_ty	pelvis_tz	hip_flexion_r	hip_adduction_r	hip_rotation_r	knee_angle_r	knee_angle_r_beta	ankle_angle_r	subtalar_angle_r	mtp_angle_r	hip_flexion_l	hip_adduction_l	hip_rotation_l	knee_angle_l	knee_angle_l_beta	ankle_angle_l	subtalar_angle_l	mtp_angle_l	lumbar_extension	lumbar_bending	lumbar_rotation	arm_flex_r	arm_add_r	arm_rot_r	elbow_flex_r	pro_sup_r	wrist_flex_r	wrist_dev_r	arm_flex_l	arm_add_l	arm_rot_l	elbow_flex_l	pro_sup_l	wrist_flex_l	wrist_dev_l
      4.50000000	    -29.94401357	      4.81779228	      2.80233214	     -0.33676787	      0.74735890	     -1.05831598	     26.77881175	    -11.52346459	     -7.90204698	     99.91049454	      1.74376709	    -18.67445814	      0.00000000	      0.00000000	     79.20922156	      5.88779418	    -11.66280026	     88.71569688	      1.54838101	     29.07505875	      0.00000000	      0.00000000	     -2.08465096	     -7.44179338	     -0.88250731	     89.89058364	    -17.08790304	     19.88927978	     53.91041686	     86.00307653	      0.00000000	      0.00000000	     89.93131010	    -18.54608588	     24.96643622	     51.88243150	     85.16472186	      0.00000000	      0.00000000
      4.50500000	    -29.97769029	      4.80356668	      2.81615931	     -0.33673068	      0.74699079	     -1.05842288	     26.77388338	    -11.53929077	     -7.93608621	     99.91463140	      1.74383929	    -18.74613921	      0.00000000	      0.00000000	     79.27055843	      5.92898704	    -11.60985222	     88.76101478	      1.54917196	     29.10132547	      0.00000000	      0.00000000	     -2.06712532	     -7.40976760	     -0.88440889	     89.89080616	    -17.08003869	     19.88284860	     53.92893722	     85.95128847	      0.00000000	      0.00000000	     89.93129453	    -18.50807047	     24.92909262	     51.87985115	     85.14628635	      0.00000000	      0.00000000
      4.51000000	    -29.99723492	      4.75675066	      2.82163737	     -0.33676093	      0.74668221	     -1.05838420	     26.77556525	    -11.48270851	     -7.95809177	     99.91930505	      1.74392086	    -18.78592241	      0.00000000	      0.00000000	     79.33472137	      5.90177863	    -11.57227336	     88.85091402	      1.55074099	     29.12017827	      0.00000000	      0.00000000	     -2.06807171	     -7.35936954	     -0.92092869	     89.89095346	    -17.03822749	     19.89046595	     53.90488936	     85.96911555	      0.00000000	      0.00000000	     89.93169088	    -18.50849969	     24.86609535	     51.90689697	     85.22120188	      0.00000000	      0.00000000
      4.51500000	    -30.07157313	      4.77918430	      2.77655185	     -0.33678857	      0.74626455	     -1.05834419	     26.86224586	    -11.49396636	     -7.90171934	     99.94003255	      1.74428262	    -18.86907487	      0.00000000	      0.00000000	     79.43685212	      5.84392806	    -11.63028349	     88.89692614	      1.55154406	     29.15478466	      0.00000000	      0.00000000	     -1.99462895	     -7.38421327	     -0.86518844	     89.89122087	    -17.07931224	     20.03494369	     53.95418914	     85.69136111	      0.00000000	      0.00000000	     89.93190836	    -18.50491533	     24.95575089	     51.95085120	     84.88317437	      0.00000000	      0.00000000
      4.52000000	    -30.10378509	      4.74591401	      2.79149042	     -0.33681471	      0.74594756	     -1.05833484	     26.86938777	    -11.46444526	     -7.93527404	     99.94406328	      1.74435297	    -18.77286583	      0.00000000	      0.00000000	     79.51425342	      5.84332135	    -11.58309955	     88.97722126	      1.55294547	     29.14707142	      0.00000000	      0.00000000	     -1.98320179	     -7.34782937	     -0.85995803	     89.89139414	    -17.03857799	     19.88668521	     53.89631973	     85.98686409	      0.00000000	      0.00000000	     89.93184312	    -18.41782530	     24.78554146	     51.93553015	     85.14578397	      0.00000000	      0.00000000
      4.52500000	    -30.11790632	      4.73808391	      2.77747889	     -0.33673244	      0.74563088	     -1.05837126	     26.86262352	    -11.45978369	     -7.92848960	     99.94319380	      1.74433780	    -18.71113106	      0.00000000	      0.00000000	     79.55410930	      5.83096545	    -11.57447903	     89.04094095	      1.55405759	     29.17930303	      0.00000000	      0.00000000	     -1.97746196	     -7.32665907	     -0.83416692	     89.89118616	    -17.04693425	     19.89288514	     53.91425216	     85.97514568	      0.00000000	      0.00000000	     89.93197552	    -18.34799998	     24.70202582	     51.90134435	     85.19305161	      0.00000000	      0.00000000
      4.53000000	    -30.16568157	      4.72861273	      2.80523085	     -0.33674398	      0.74533149	     -1.05842650	     26.88845202	    -11.48271167	     -7.96839374	     99.94349550	      1.74434306	    -18.67505458	      0.00000000	      0.00000000	     79.61956736	      5.87914997	    -11.51721362	     89.03439863	      1.55394340	     29.23783963	      0.00000000	      0.00000000	     -1.92559964	     -7.33614048	     -0.83186234	     89.89171262	    -17.05716857	     20.04233808	     53.80910437	     84.76366011	      0.00000000	      0.00000000	     89.93233301	    -18.28690041	     24.87630217	     51.87541851	     83.93949341	      0.00000000	      0.00000000
      4.53500000	    -30.09948630	      4.80121909	      2.78780954	     -0.33658215	      0.74522173	     -1.05847792	     26.79770688	    -11.56087810	     -7.94289989	     99.93869396	      1.74425926	    -18.72509512	      0.00000000	      0.00000000	     79.55918033	      5.85068447	    -11.66727084	     89.10597316	      1.55519261	     29.22707094	      0.00000000	      0.00000000	     -2.04168806	     -7.38141536	     -0.85325500	     89.89123820	    -17.02350507	     19.88117253	     53.89827319	     86.00616709	      0.00000000	      0.00000000	     89.93212870	    -18.32221352	     24.65207842	     51.97711244	     85.13476064	      0.00000000	      0.00000000
      4.54000000	    -30.11620537	      4.76866207	      2.80456212	     -0.33656294	      0.74492407	     -1.05846706	     26.78195174	    -11.52092587	     -7.95983755	     99.91126498	      1.74378053	    -18.65138787	      0.00000000	      0.00000000	     79.61421090	      5.85721747	    -11.61377703	     89.18278039	      1.55653315	     29.19692527	      0.00000000	      0.00000000	     -2.04195622	     -7.35053582	     -0.84303748	     89.89144585	    -17.03841104	     19.86212628	     53.90819271	     86.02378766	      0.00000000	      0.00000000	     89.93219053	    -18.26356418	     24.60353259	     52.02249226	     85.15478784	      0.00000000	      0.00000000
      4.54500000	    -30.18751539	      4.77285951	      2.85468899	     -0.33651055	      0.74447395	     -1.05855518	     26.80288234	    -11.56494042	     -8.02414713	     99.91890281	      1.74391384	    -18.42746955	      0.00000000	      0.00000000	     79.73735935	      5.91536492	    -11.58840857	     89.24163817	      1.55756042	     29.15252045	      0.00000000	      0.00000000	     -1.94845154	     -7.36687975	     -0.84561623	     89.89150080	    -17.02676289	     20.04197208	     53.79435065	     83.74099742	      0.00000000	      0.00000000	     89.93277256	    -18.14239194	     24.80267508	     51.93482486	     82.92156290	      0.00000000	      0.00000000
      4.55000000	    -30.18104005	      4.79264821	      2.77873338	     -0.33643149	      0.74421802	     -1.05846292	     26.82312618	    -11.54386744	     -7.92077329	     99.90883762	      1.74373817	    -18.65907887	      0.00000000	      0.00000000	     79.73610644	      5.82231737	    -11.65822270	     89.30388056	      1.55864675	     29.25211680	      0.00000000	      0.00000000	     -1.98700057	     -7.37347337	     -0.78576160	     89.89146725	    -17.05010533	     19.84046221	     53.91768238	     86.03613741	      0.00000000	      0.00000000	     89.93242188	    -18.21059610	     24.56425508	     52.09128893	     85.19201955	      0.00000000	      0.00000000
      4.55500000	    -30.24614014	      4.75130409	      2.82695937	     -0.33640582	      0.74382187	     -1.05850727	     26.83789146	    -11.52625941	     -7.99051942	     99.89980985	      1.74358060	    -18.44518746	      0.00000000	      0.00000000	     79.84472295	      5.85824592	    -11.59821443	     89.36193473	      1.55965999	     29.21387800	      0.00000000	      0.00000000	     -1.89624469	     -7.33929521	     -0.80097335	     89.89132375	    -17.02701699	     20.04240763	     53.78874077	     83.72550734	      0.00000000	      0.00000000	     89.93292522	    -18.10489786	     24.76165866	     52.00397243	     82.92517250	      0.00000000	      0.00000000
      4.56000000	    -30.28335484	      4.72927468	      2.88115841	     -0.33637041	      0.74348932	     -1.05860255	     26.83233293	    -11.53268096	     -8.04258415	     99.88464978	      1.74331601	    -18.36703456	      0.00000000	      0.00000000	     79.91408525	      5.90661583	    -11.56081871	     89.41585987	      1.56060116	     29.24305891	      0.00000000	      0.00000000	     -1.83022823	     -7.32326866	     -0.82858231	     89.89077917	    -17.05161154	     20.30465747	     53.70872807	     81.64218422	      0.00000000	      0.00000000	     89.93336413	    -18.05285009	     24.99817758	     51.94939621	     80.88676991	      0.00000000	      0.00000000
      4.56500000	    -30.25612121	      4.72741318	      2.78284048	     -0.33627305	      0.74325032	     -1.05850969	     26.84111991	    -11.49217486	     -7.94466747	     99.84956966	      1.74270375	    -18.71696488	      0.00000000	      0.00000000	     79.88674150	      5.77235780	    -11.63416700	     89.46627000	      1.56148098	     29.31806393	      0.00000000	      0.00000000	     -1.89664965	     -7.28857734	     -0.74937315	     89.89106157	    -17.04879501	     19.86836510	     53.85503374	     86.07035721	      0.00000000	      0.00000000	     89.93263140	    -18.14477581	     24.57953593	     52.11133988	     85.06729774	      0.00000000	      0.00000000
      4.57000000	    -30.30088390	      4.74845911	      2.74180322	     -0.33626496	      0.74288371	     -1.05842570	     26.91159462	    -11.48441587	     -7.86797771	     99.85618496	      1.74281921	    -18.79971198	      0.00000000	      0.00000000	     79.96045180	      5.72189584	    -11.67385047	     89.53312826	      1.56264788	     29.44194223	      0.00000000	      0.00000000	     -1.85292638	     -7.31513915	     -0.72277585	     89.89217343	    -17.11160625	     20.16215790	     53.95021194	     85.09499336	      0.00000000	      0.00000000	     89.93276868	    -18.24304606	     24.81710262	     52.30243877	     84.12501804	      0.00000000	      0.00000000
      4.57500000	    -30.32324281	      4.73487986	      2.75326781	     -0.33618898	      0.74253954	     -1.05851892	     26.90606005	    -11.48095187	     -7.86554096	     99.84886206	      1.74269140	    -18.70420929	      0.00000000	      0.00000000	     80.02208679	      5.74826226	    -11.64056255	     89.60732704	      1.56394289	     29.37326169	      0.00000000	      0.00000000	     -1.83214145	     -7.28309397	     -0.72331430	     89.89130519	    -17.02779159	     19.89558074	     53.82616780	     86.02166156	      0.00000000	      0.00000000	     89.93285652	    -18.16467638	     24.55889866	     52.20359882	     85.16690098	      0.00000000	      0.00000000
